<?xml version="1.0" encoding="utf-8"?>
<!-- Generator: Adobe Illustrator 23.0.1, SVG Export Plug-In . SVG Version: 6.00 Build 0)  -->
<svg version="1.1" id="图层_1" xmlns="http://www.w3.org/2000/svg" xmlns:xlink="http://www.w3.org/1999/xlink" x="0px" y="0px"
	 viewBox="0 0 701 686" style="enable-background:new 0 0 701 686;" xml:space="preserve">
<style type="text/css">
	.st0{clip-path:url(#SVGID_2_);fill:#1296DB;}
	.st1{fill:#1296DB;}
	.st2{fill:none;}
	.st3{font-family:'MFYueYuan_Noncommercial-Regular-GBpc-EUC-H';}
	.st4{font-size:57px;}
</style>
<g>
	<g>
		<defs>
			<rect id="SVGID_1_" x="88.1" y="36.2" width="476" height="475.5"/>
		</defs>
		<clipPath id="SVGID_2_">
			<use xlink:href="#SVGID_1_"  style="overflow:visible;"/>
		</clipPath>
		<path class="st0" d="M167.7,511c-9.1,0-16.4-7.5-16.4-16.8V324h-34.1c-1.7,0-3.4-0.3-5.1-0.8c-3.6-1.2-12.7-5.6-20.1-20.7
			c-7.1-14.5-3.6-27.9,1.5-35c0.5-0.7,1-1.3,1.6-1.9L314.5,41.8c3.1-3.2,7.2-4.9,11.6-4.9c4.4,0,8.5,1.7,11.6,4.9l62.5,63.5
			c6.4,6.5,6.4,17.1,0,23.7c-3.1,3.2-7.3,4.9-11.6,4.9c-4.4,0-8.5-1.8-11.6-4.9l-50.9-51.7L117.3,290.5h50.4
			c9.1,0,16.4,7.5,16.4,16.8v170.3h284.3V307.2c0-9.2,7.4-16.8,16.4-16.8h42.3l-77.3-78.6c-3.1-3.1-4.8-7.4-4.8-11.9v-68.4
			c0-9.2,7.4-16.8,16.4-16.8c9,0,16.4,7.5,16.4,16.8v61.5l78.2,79.5c1,1,1.8,2.1,2.5,3.2c1.5,2.5,8.6,15.9,2.3,30.1
			c-6.3,14.2-21,17.4-23.8,17.9c-0.9,0.1-1.8,0.2-2.7,0.2h-33.1v170.3c0,9.2-7.4,16.8-16.4,16.8L167.7,511L167.7,511z"/>
	</g>
</g>
<path class="st1" d="M369.2,463.5c-9,0-16.3-7.5-16.3-16.8V335.1h-53.7v111.6c-0.1,9.1-7.4,16.6-16.3,16.6
	c-9.1-0.1-16.2-7.4-16.3-16.6V334c0-18,14.1-32.6,31.5-32.6H354c17.4,0,31.5,14.6,31.5,32.6v112.6
	C385.5,456,378.2,463.5,369.2,463.5z"/>
<path class="st2" d="M129.4,511.7L129.4,511.7C97,522.9,68.5,563,66.5,601.4c7.7-15.3,22.5-30.3,30.3-40.2
	C106.8,548.7,115.2,523.7,129.4,511.7z"/>
<path class="st2" d="M26.3,371.5v231.1c0.4-12.8,3.2-26.5,8.8-41c25.5-65.9,98.5-134.1,157.5-78c29-27.4,50.8-60.9,86.3-83.1
	c31.5-19.7,66.5-31.7,104-27.9c33.8,3.5,71.5,22.8,95.7,50.9c21.5,20.6,37.6,48.2,50,79.2c36.9-14.5,77.3-20,113,1.3
	c17.5,10.6,32.3,25.3,43.2,42.7c1,1.7,10.3,23,13.5,29.6c0-2,5.9-1.1,9.5,1.3c75.1,51.3,17.2,108.4-51.8,117.1
	c-24.2,27.1-53,44.2-94.2,41.2c-28.9-2.1-51.7-17-79.7-4.5c-22.5,10.1-36.5,23.3-62.3,28.6c-44.1,9.2-106.9,9.2-143.1-21.2
	c-6.2-5.2-10.7-12.9-16.9-17.9c-16.5-13.3-9.9-10.9-32-10c-23.9,0.9-45.7,6.9-70,5.1c-67.9-5.1-129.4-44.3-131.5-107v157.4h716.9
	V371.5H26.3z"/>
<path class="st1" d="M471.1,490c3.9,2.1,8.7,2.9,12.8,1.5c35.5-12.7,75.2-24.9,107.1,3.1c17.3,15.2,19.3,35.3,31.5,52.4
	c3.3,4.6,9.2,8.8,15.6,8.3c24.2-2.2,3.8,27-9.2,35.2c0,0,0,0,0,0c-3.7-11.6-24.5-17.8-35-4.6c-31,38.8-62,37.6-105.8,31.9
	c-5-14-2-26.7,1.6-41.3c0.9-3.6-5-5.1-5.9-1.5c-3.8,14.8-6.4,27.8-2.7,41.9l-5.4-0.7c-9.3-1.3-16.8-1.9-24.6-0.8
	c-2.9-14.6,2.7-30.4,4.2-44.9c0.3-3.2-5.1-3.2-5.4,0c-1.6,15.3-7.4,31.1-5.1,46.3c-2.2,0.5-4.3,1.2-6.3,2
	c-11.4,4.7-19.4,14.5-30.3,19.9c-21.8,10.8-47.8,12-71.9,12c-30,0-51.1-5-73.3-23.9c-6.1-5.2-9.3-13.1-16.1-17.7
	c2.9-14.6,6.5-29,7.8-43.8c0.2-2.6-4-2.5-4.3,0c-1.4,14-5.3,27.4-8.7,40.9c-12-5.5-26.3-5.6-41.4-4c2.8-14.3,7.4-28.2,13.7-41.4
	c0.9-1.8-2-3.4-2.9-1.6c-7,14-12.5,28.7-16.3,43.7c-14.3,1.9-29.2,5-43.4,6.5c0.5-0.1,1-0.3,1.4-0.6l5-4.2c2.9-2.4-0.5-6-3.6-5.1
	c2.3-14.8,13.7-29.1,23.5-40.3c6.8-7.8,13.9-15.3,14.7-25.6c0.2-3.2-5.1-3.2-5.4,0c-1.4,14-18,25.8-26,37.2
	c-7.7,11-15.1,22.1-14.3,35.7c0.1,1.7,1.5,3,3.3,3.1c-9,0.9-17.8,1.1-25.9-0.2c-5.1-0.8-10.1-1.9-15.1-3.2
	c6.3-27.2,26.8-58.9,47.3-77c1.1-1-0.5-2.5-1.7-1.6c-14.9,11.8-25.3,26.2-34.7,42c-6.6,11.1-13.9,22.3-17.5,34.5
	c-24-7.9-41.7-30.6-41.7-30.6l0.3-2.2l-2.2-10l1.2-8.4c0,0,5.5-17,9.2-22.1c6.2-8.6,13.5-16.3,20.1-24.6c9.9-12.6,19-43,37.7-44.9
	c0.2,0,0.3-0.2,0.5-0.3c11-0.5,22,2.6,32,10.7c3.2,2.6,7.6,4.2,11.9,4.4l1.3-37.1C116.6,390,47.8,449.6,23.8,507
	c-5.3,12.7-7.9,24.6-8.3,35.7v5.6c2,54.7,60,88.9,124,93.3c22.9,1.6,43.5-3.6,66-4.4c20.8-0.8,14.6-2.8,30.2,8.8
	c5.8,4.3,10.1,11.1,15.9,15.6c34.1,26.5,93.3,26.5,134.9,18.5c24.3-4.7,37.6-16.2,58.7-25c26.3-10.9,47.9,2.1,75.1,3.9
	c38.8,2.5,65.9-12.3,88.8-36c65.1-7.6,119.7-57.5,48.9-102.2c-3.3-2.1-8.9-2.9-8.9-1.1c-3-5.7-11.8-24.4-12.8-25.8
	c-10.2-15.2-24.2-28-40.7-37.2c-33.7-18.6-88.8-11.6-123.5,1"/>
<text transform="matrix(1 0 0 1 456.6805 97.9189)" class="st1 st3 st4">一方宅子</text>
</svg>
